<?xml version="1.0" standalone="no"?>
<!DOCTYPE svg PUBLIC "-//W3C//DTD SVG 20010904//EN"
 "http://www.w3.org/TR/2001/REC-SVG-20010904/DTD/svg10.dtd">
<svg version="1.0" xmlns="http://www.w3.org/2000/svg"
 width="512.000000pt" height="512.000000pt" viewBox="0 0 512.000000 512.000000"
 preserveAspectRatio="xMidYMid meet">

 <defs>
  <linearGradient id="myGradient" gradientTransform="rotate(90)">
    <stop offset="0%" stop-color="#3a8db4" />
    <stop offset="46%" stop-color="#bf84d7" />
    <stop offset="66%" stop-color="#eb89c5" />
    <stop offset="85%" stop-color="#f9b682" />
  </linearGradient>
</defs>

<g transform="translate(0.000000,512.000000) scale(0.100000,-0.100000)"
fill="url('#myGradient')" stroke="none">
<path d="M1115 5113 c-460 -32 -802 -244 -984 -610 -51 -102 -85 -212 -108
-348 -17 -104 -18 -197 -18 -1600 0 -1405 1 -1496 18 -1595 79 -444 333 -749
739 -885 214 -71 132 -68 1733 -72 1570 -4 1596 -3 1804 52 363 97 654 378
756 730 63 218 60 134 60 1765 0 1396 -1 1492 -18 1595 -46 275 -142 469 -313
639 -167 166 -349 258 -609 308 -109 21 -125 22 -1560 23 -797 1 -1472 0
-1500 -2z m2595 -811 c25 -25 29 -38 35 -113 3 -46 5 -642 3 -1324 l-3 -1240
-23 -66 c-26 -79 -89 -177 -140 -219 -140 -117 -444 -166 -595 -97 -160 73
-259 257 -228 424 29 156 128 267 291 327 25 9 128 34 229 56 101 22 195 47
208 55 13 9 33 30 43 48 19 31 20 55 20 658 0 618 0 627 -21 653 -14 18 -30
26 -50 26 -33 0 -1355 -264 -1406 -281 -17 -5 -37 -17 -45 -26 -10 -13 -14
-195 -19 -957 -6 -1028 -3 -977 -65 -1103 -32 -66 -112 -148 -180 -185 -93
-50 -195 -72 -334 -73 -120 0 -128 1 -190 31 -241 116 -300 432 -117 631 78
85 155 117 419 172 182 39 215 52 245 98 17 25 18 95 23 1058 5 952 6 1032 22
1062 28 50 63 70 161 93 310 70 1581 319 1630 320 51 0 62 -4 87 -28z"/>
</g>
</svg>
