<?xml version="1.0" standalone="no"?>
<!DOCTYPE svg PUBLIC "-//W3C//DTD SVG 20010904//EN"
 "http://www.w3.org/TR/2001/REC-SVG-20010904/DTD/svg10.dtd">
<svg version="1.0" xmlns="http://www.w3.org/2000/svg"
 width="1536.000000pt" height="1536.000000pt" viewBox="0 0 1536.000000 1536.000000"
 preserveAspectRatio="xMidYMid meet" >

 <defs>
    <linearGradient id="myGradient" gradientTransform="rotate(90)">
      <stop offset="0%" stop-color="#3a8db4" />
      <stop offset="46%" stop-color="#bf84d7" />
      <stop offset="66%" stop-color="#eb89c5" />
      <stop offset="85%" stop-color="#f9b682" />
    </linearGradient>
  </defs>

<g transform="translate(0.000000,1536.000000) scale(0.100000,-0.100000)" fill="url('#myGradient')" stroke="none">
<path d="M6210 15350 c-1128 -15 -2097 -57 -2430 -106 -270 -39 -572 -111
-845 -200 -889 -293 -1575 -799 -2064 -1524 -442 -655 -681 -1378 -761 -2295
-12 -149 -36 -691 -51 -1175 -16 -546 -17 -4262 -1 -4740 24 -725 40 -1005 73
-1307 142 -1312 644 -2292 1541 -3010 104 -83 361 -256 483 -325 478 -271
1063 -459 1695 -547 711 -98 1435 -115 4530 -101 2379 11 2649 18 3142 81 698
89 1325 296 1843 608 891 539 1538 1425 1799 2466 95 378 130 642 176 1300 19
280 20 394 20 3197 0 2805 -2 3083 -30 3443 -91 1162 -420 2038 -1032 2750
-126 146 -340 352 -500 480 -593 475 -1267 763 -2068 884 -317 48 -976 91
-1700 111 -466 13 -3081 20 -3820 10z m4050 -1403 c648 -25 807 -35 1065 -68
572 -72 1027 -226 1407 -478 150 -99 248 -179 384 -315 510 -510 755 -1151
834 -2181 6 -71 14 -393 20 -715 14 -879 33 -4026 26 -4340 -19 -829 -37
-1299 -57 -1530 -80 -924 -331 -1543 -824 -2035 -222 -222 -405 -355 -670
-485 -422 -208 -954 -324 -1645 -360 -619 -31 -4948 -49 -5590 -22 -733 30
-972 45 -1189 73 -708 92 -1279 356 -1716 793 -395 395 -627 870 -750 1531
-88 473 -102 837 -116 3015 -10 1613 -2 2993 21 3500 31 702 52 963 95 1210
152 867 586 1535 1257 1932 482 285 1027 417 1883 457 195 10 777 28 1080 35
72 1 1019 2 2105 0 1579 -1 2056 -5 2380 -17z"/>
<path d="M11636 12684 c-185 -36 -334 -113 -470 -243 -206 -198 -309 -481
-276 -762 37 -315 236 -594 525 -735 144 -70 223 -87 400 -87 181 0 258 17
410 93 226 112 388 305 470 560 37 114 46 323 20 451 -76 376 -356 653 -733
725 -91 17 -254 17 -346 -2z"/>
<path d="M7345 11609 c-1349 -126 -2542 -946 -3155 -2169 -440 -878 -535
-1895 -265 -2836 247 -861 783 -1615 1515 -2135 511 -364 1090 -598 1701 -689
429 -64 928 -51 1351 35 1086 220 2032 890 2612 1850 278 460 452 964 532
1535 21 158 30 628 15 813 -59 699 -320 1404 -727 1963 -147 203 -238 308
-424 495 -619 620 -1385 1001 -2253 1120 -122 17 -216 22 -477 24 -179 2 -370
-1 -425 -6z m527 -1379 c881 -57 1650 -543 2081 -1315 145 -259 245 -560 294
-882 20 -135 23 -515 5 -653 -78 -581 -329 -1095 -733 -1499 -203 -203 -412
-353 -674 -481 -263 -130 -478 -197 -766 -241 -189 -29 -514 -31 -694 -5 -749
108 -1377 500 -1787 1116 -293 439 -439 949 -425 1475 6 222 25 363 77 570
265 1057 1201 1841 2288 1914 168 12 172 12 334 1z"/>
</g>
</svg>
