<?xml version="1.0" standalone="no"?>
<!DOCTYPE svg PUBLIC "-//W3C//DTD SVG 20010904//EN"
 "http://www.w3.org/TR/2001/REC-SVG-20010904/DTD/svg10.dtd">
<svg version="1.0" xmlns="http://www.w3.org/2000/svg"
 width="512.000000pt" height="512.000000pt" viewBox="0 0 512.000000 512.000000"
 preserveAspectRatio="xMidYMid meet">

 <defs>
    <linearGradient id="myGradient" gradientTransform="rotate(90)">
      <stop offset="0%" stop-color="#3a8db4" />
      <stop offset="46%" stop-color="#bf84d7" />
      <stop offset="66%" stop-color="#eb89c5" />
      <stop offset="85%" stop-color="#f9b682" />
    </linearGradient>
  </defs>

<g transform="translate(0.000000,512.000000) scale(0.100000,-0.100000)"
fill="url('#myGradient')" stroke="none">
<path d="M2372 5099 c-730 -53 -1416 -430 -1858 -1021 -278 -373 -447 -809
-495 -1282 -15 -149 -7 -471 16 -616 98 -634 425 -1205 923 -1612 351 -287
831 -491 1292 -548 109 -13 511 -13 620 0 628 78 1215 393 1628 875 305 356
514 814 587 1285 23 145 31 467 16 616 -79 773 -485 1451 -1126 1879 -380 253
-788 392 -1250 425 -155 11 -189 11 -353 -1z m128 -1339 c658 -42 1208 -179
1675 -418 202 -104 248 -157 248 -287 0 -78 -21 -131 -70 -176 -50 -47 -93
-63 -163 -63 -61 0 -73 4 -210 76 -359 189 -774 305 -1302 365 -218 24 -763
24 -973 -1 -188 -22 -380 -57 -510 -93 -138 -39 -216 -38 -281 3 -146 90 -152
317 -11 412 108 72 581 158 1022 185 124 8 425 6 575 -3z m90 -895 c441 -55
821 -165 1169 -339 185 -93 252 -137 279 -185 80 -142 -10 -311 -166 -311 -38
0 -64 8 -113 35 -130 73 -347 174 -455 213 -396 144 -832 211 -1274 198 -280
-8 -467 -34 -710 -98 -147 -38 -212 -36 -267 9 -70 56 -96 136 -74 221 13 47
60 106 100 126 39 20 248 72 401 100 117 21 192 31 395 50 95 9 597 -4 715
-19z m-164 -815 c347 -28 649 -102 934 -227 111 -50 264 -129 328 -171 40 -26
65 -88 60 -149 -8 -91 -66 -148 -151 -148 -45 1 -67 9 -162 63 -547 309 -1236
388 -2028 231 -182 -36 -212 -36 -258 -5 -93 64 -93 209 1 277 45 34 466 107
730 128 155 12 399 12 546 1z"/>
</g>
</svg>
